<svg xmlns="http://www.w3.org/2000/svg" viewBox="0 0 786.73 635.94"><defs><style>.cls-1{fill:#fce700;}</style></defs><g id="Layer_2" data-name="Layer 2"><g id="Layer_1-2" data-name="Layer 1"><path class="cls-1" d="M145.59,541.64v8.57H61.65v-8.57c21.79,0,25.36-5.36,25.36-28.22v-205c0-23.22.36-27.5-19.65-17.5l-3.93-7.5,26.79-13.58,25.37-12.5,5,5V513.42C120.58,536.28,123.8,541.64,145.59,541.64Zm101.8,0v8.57H159.52v-8.57c24.29,0,21.43-3.57,10.36-23.58l-42.15-75.72L176,389.12c15.72-17.15,20.72-18.94-5.36-18.94v-8.57H238.1v8.57c-15.36,0-26.79,1.79-42.15,19.29l-34.29,38.58,50,90C223.1,538.07,232.39,541.64,247.39,541.64Z"/><path class="cls-1" d="M313.47,391.26h1.07c13.57-19.65,32.15-36.79,55.72-36.79,26.44,0,38.22,18.57,38.22,51.44V513.42c0,22.86,3.57,28.22,25.36,28.22v8.57H351.69v-8.57c20,0,23.22-5.36,23.22-28.22V405.91c0-18.58-5.72-28.58-19.65-28.58s-28.93,12.14-41.79,28.93V513.42c0,22.86,3.21,28.22,23.22,28.22v8.57H254.53v-8.57c21.79,0,25.36-5.36,25.36-28.22v-205c0-23.22.36-27.5-19.64-17.5l-3.93-7.5,26.79-13.58,25.36-12.5,5,5Z"/><path class="cls-1" d="M498.48,391.26h1.07c13.57-19.65,32.15-36.79,55.73-36.79,26.43,0,38.22,18.57,38.22,51.44V513.42c0,22.86,3.57,28.22,25.36,28.22v8.57H536.7v-8.57c20,0,23.22-5.36,23.22-28.22V405.91c0-18.58-5.71-28.58-19.65-28.58s-28.93,12.14-41.79,28.93V513.42c0,22.86,3.21,28.22,23.22,28.22v8.57H439.54v-8.57c21.79,0,25.37-5.36,25.37-28.22V405.91c0-23.22.35-27.87-19.65-17.87l-3.93-7.5,26.79-13.21,25.36-12.86,5,5Z"/><path class="cls-1" d="M785.3,567.36c0,36.43-42.51,68.58-97.51,68.58-36.8,0-68.94-12.5-68.94-43.22,0-20.72,15.36-36.44,35-51.08-13.21-4.29-19.64-12.5-19.64-25.36,0-14.65,11.43-27.15,23.93-38.94-15.36-11.79-25-30.72-25-54.65,0-41.79,29.28-68.22,65-68.22a65.23,65.23,0,0,1,35.72,10.36c12.5-6.08,26.44-10.36,39.65-10.36,9.29,0,13.22,4.28,13.22,10.71s-4.29,8.93-11.43,8.93c-11.07,0-18.57.36-27.51,2.15l-3.57-2.5c11.43,11.78,18.58,28.57,18.58,48.93,0,41.44-29.65,67.87-64.66,67.87A64.27,64.27,0,0,1,666,482.35c-8.22,7.85-13.22,13.92-13.22,20.35,0,12.15,14.65,17.15,51.79,17.15C756,519.85,785.3,532.35,785.3,567.36Zm-14.65,3.93c0-20-21.78-23.93-62.51-23.93-17.85,0-32.5-.72-43.57-2.86-16.07,14.64-21.43,23.57-21.43,34.64,0,17.86,20.71,29.29,58.22,29.29C741.37,608.43,770.65,595.57,770.65,571.29ZM667.43,425.19c3.21,36.44,15.71,52.87,35.36,51.44,20-1.43,28.93-20.72,25.72-56.44-3.58-36.07-15-53.93-35.37-51.79Q663.14,370.54,667.43,425.19Z"/><path class="cls-1" d="M95.31,161.08C82.09,216.8,67.67,246.8,33.73,246.8,5.52,246.8-7.07,228.59,4,180.73L30.45,66.08H2.59l3.46-15C39.16,50,56.06,37.14,67.85,0H78.92L67.13,51.07h41.44l-3.46,15H63.67L39.84,169.3c-8.08,35-10.88,56.43,8.76,56.43,16.43,0,26.9-17.51,38.5-64.65Z"/><path class="cls-1" d="M260.93,65.72c-2.48,10.71-11.41,20-23.55,20-10,0-13.3-4.29-15.2-10-1.51-4.29-3.24-6.08-6.81-6.08-10.72,0-21.49,11.08-38.06,31.79L153.89,202.87c-5.27,22.86-1.51,28.22,31,28.22l-2,8.57H86.46l2-8.57c21.79,0,26.6-5.36,31.88-28.22L145.14,95.36c5.36-23.21,6.79-27.86-15.53-17.86l-2.2-7.5,29.85-13.21,28.33-12.86,3.84,5L182,81.07h1.07c13.16-16.78,33.23-37.14,56.44-37.14C254.88,43.93,264,52.5,260.93,65.72Z"/><path class="cls-1" d="M327.82,80.72h1.07C347,61.07,369.54,43.93,393.11,43.93c26.43,0,33.93,18.57,26.34,51.43L394.63,202.87c-5.27,22.86-2.94,28.22,18.85,28.22l-2,8.57H329.35l2-8.57c20,0,24.45-5.36,29.73-28.22L385.88,95.36c4.29-18.57.88-28.57-13.05-28.57s-31.74,12.14-48.47,28.93L299.62,202.87c-5.27,22.86-3.3,28.22,16.71,28.22l-2,8.57H232.19l2-8.57c21.79,0,26.6-5.36,31.88-28.22L290.87,95.36c5.36-23.21,6.79-27.86-15.53-17.86l-2.2-7.5L303,56.79l28.33-12.86,3.84,5Z"/><path class="cls-1" d="M574,256.8c-8.41,36.43-58.34,68.58-113.35,68.58-36.79,0-66.05-12.5-59-43.22,4.78-20.71,23.77-36.43,46.8-51.07-12.23-4.29-16.76-12.5-13.79-25.36,3.38-14.64,17.69-27.15,32.92-38.94C455,155,449.7,136.08,455.22,112.15c9.65-41.79,45-68.22,80.76-68.22,12.86,0,24.53,3.57,33.33,10.36,13.9-6.07,28.82-10.36,42-10.36,9.28,0,12.22,4.29,10.74,10.72s-6.35,8.93-13.49,8.93c-11.08,0-18.66.35-28,2.14l-3-2.5c8.71,11.79,12,28.57,7.28,48.93C575.31,153.58,539.56,180,504.56,180c-11.78,0-22.2-2.86-30.25-8.21-10,7.86-16.43,13.93-17.92,20.36-2.8,12.14,10.69,17.14,47.84,17.14C555.66,209.3,582.07,221.8,574,256.8Zm-15.56,3.93c4.62-20-16.26-23.93-57-23.93-17.86,0-32.34-.72-42.92-2.86-19.45,14.65-26.87,23.58-29.43,34.65-4.12,17.86,14,29.29,51.46,29.29C520.57,297.88,552.82,285,558.43,260.73Zm-69.5-146.08c-5.19,36.43,3.51,52.86,23.49,51.43,20.33-1.43,33.72-20.71,38.75-56.43,4.75-36.08-2.56-53.93-23.41-51.79Q497.27,60,488.93,114.65Z"/></g></g></svg>